{"asset":{"version":"2.0","generator":"Blockbench 4.10.3 glTF exporter"},"scenes":[{"nodes":[13],"name":"blockbench_export"}],"scene":0,"nodes":[{"name":"root"},{"translation":[0,-0.1976686507936507,0.2508804563492064],"name":"frame","mesh":0},{"translation":[-0.6761718750000001,0.09883432539682546,-0.1254402281746032],"name":"mirrorLeft","mesh":1},{"translation":[0.6761718750000001,0.09883432539682546,-0.1254402281746032],"name":"mirrorRight","mesh":2},{"translation":[0,0.8933531746031745,-0.2538566468253968],"name":"body","children":[1,2,3]},{"translation":[0.056985294117646856,5.551115123125783e-17,6.661338147750939e-16],"name":"wheelFrontLeft","mesh":3},{"translation":[-0.5569852941176466,0.28125000000000006,-0.6875],"name":"wheelFrontLeft","children":[5]},{"translation":[-0.056985294117646856,5.551115123125783e-17,6.661338147750939e-16],"name":"wheelFrontRight","mesh":4},{"translation":[0.5569852941176466,0.28125000000000006,-0.6875],"name":"wheelFrontRight","children":[7]},{"translation":[0.056985294117646856,5.551115123125783e-17,6.661338147750939e-16],"name":"wheelBackLeft","mesh":5},{"translation":[-0.5569852941176466,0.28125000000000006,0.5625],"name":"wheelBackLeft","children":[9]},{"translation":[-0.056985294117646856,5.551115123125783e-17,6.661338147750939e-16],"name":"wheelBackRight","mesh":6},{"translation":[0.5569852941176466,0.28125000000000006,0.5624999999999993],"name":"wheelBackRight","children":[11]},{"children":[0,4,6,8,10,12]}],"bufferViews":[{"buffer":0,"byteOffset":0,"byteLength":3936,"target":34962,"byteStride":12},{"buffer":0,"byteOffset":3936,"byteLength":3936,"target":34962,"byteStride":12},{"buffer":0,"byteOffset":7872,"byteLength":2624,"target":34962,"byteStride":8},{"buffer":0,"byteOffset":10496,"byteLength":984,"target":34963},{"buffer":0,"byteOffset":11480,"byteLength":672,"target":34962,"byteStride":12},{"buffer":0,"byteOffset":12152,"byteLength":672,"target":34962,"byteStride":12},{"buffer":0,"byteOffset":12824,"byteLength":448,"target":34962,"byteStride":8},{"buffer":0,"byteOffset":13272,"byteLength":168,"target":34963},{"buffer":0,"byteOffset":13440,"byteLength":672,"target":34962,"byteStride":12},{"buffer":0,"byteOffset":14112,"byteLength":672,"target":34962,"byteStride":12},{"buffer":0,"byteOffset":14784,"byteLength":448,"target":34962,"byteStride":8},{"buffer":0,"byteOffset":15232,"byteLength":168,"target":34963},{"buffer":0,"byteOffset":15400,"byteLength":1728,"target":34962,"byteStride":12},{"buffer":0,"byteOffset":17128,"byteLength":1728,"target":34962,"byteStride":12},{"buffer":0,"byteOffset":18856,"byteLength":1152,"target":34962,"byteStride":8},{"buffer":0,"byteOffset":20008,"byteLength":384,"target":34963},{"buffer":0,"byteOffset":20392,"byteLength":1728,"target":34962,"byteStride":12},{"buffer":0,"byteOffset":22120,"byteLength":1728,"target":34962,"byteStride":12},{"buffer":0,"byteOffset":23848,"byteLength":1152,"target":34962,"byteStride":8},{"buffer":0,"byteOffset":25000,"byteLength":384,"target":34963},{"buffer":0,"byteOffset":25384,"byteLength":1728,"target":34962,"byteStride":12},{"buffer":0,"byteOffset":27112,"byteLength":1728,"target":34962,"byteStride":12},{"buffer":0,"byteOffset":28840,"byteLength":1152,"target":34962,"byteStride":8},{"buffer":0,"byteOffset":29992,"byteLength":384,"target":34963},{"buffer":0,"byteOffset":30376,"byteLength":1728,"target":34962,"byteStride":12},{"buffer":0,"byteOffset":32104,"byteLength":1728,"target":34962,"byteStride":12},{"buffer":0,"byteOffset":33832,"byteLength":1152,"target":34962,"byteStride":8},{"buffer":0,"byteOffset":34984,"byteLength":384,"target":34963}],"buffers":[{"byteLength":35368,"uri":"data:application/octet-stream;base64,"}],"accessors":[{"bufferView":0,"componentType":5126,"count":328,"max":[0.5625,0.679315447807312,1.1279761791229248],"min":[-0.5625,-0.3831845223903656,-1.1845238208770752],"type":"VEC3"},{"bufferView":1,"componentType":5126,"count":328,"max":[1,1,1],"min":[-1,-1,-1],"type":"VEC3"},{"bufferView":2,"componentType":5126,"count":328,"max":[0.6015625,0.59375],"min":[0,0],"type":"VEC2"},{"bufferView":3,"componentType":5123,"count":492,"max":[327],"min":[0],"type":"SCALAR"},{"bufferView":4,"componentType":5126,"count":56,"max":[0.11367187649011612,0.0703125,0.08554687350988388],"min":[-0.13632813096046448,-0.0546875,-0.05820312350988388],"type":"VEC3"},{"bufferView":5,"componentType":5126,"count":56,"max":[1,1,1],"min":[-0.9743912220001221,-1,-1],"type":"VEC3"},{"bufferView":6,"componentType":5126,"count":56,"max":[0.6249871253967285,0.359375],"min":[0.0234375,0],"type":"VEC2"},{"bufferView":7,"componentType":5123,"count":84,"max":[55],"min":[0],"type":"SCALAR"},{"bufferView":8,"componentType":5126,"count":56,"max":[0.13632813096046448,0.0703125,0.08554687350988388],"min":[-0.11367187649011612,-0.0546875,-0.05820312350988388],"type":"VEC3"},{"bufferView":9,"componentType":5126,"count":56,"max":[0.9743912220001221,1,1],"min":[-1,-1,-1],"type":"VEC3"},{"bufferView":10,"componentType":5126,"count":56,"max":[0.6406121253967285,0.46875],"min":[0.1171875,0.0234375],"type":"VEC2"},{"bufferView":11,"componentType":5123,"count":84,"max":[55],"min":[0],"type":"SCALAR"},{"bufferView":12,"componentType":5126,"count":144,"max":[0.15625,0.28125,0.28125],"min":[-0.15625,-0.28125,-0.28125],"type":"VEC3"},{"bufferView":13,"componentType":5126,"count":144,"max":[1,1,1],"min":[-1,-1,-1],"type":"VEC3"},{"bufferView":14,"componentType":5126,"count":144,"max":[0.609375,0.5859375],"min":[0,0],"type":"VEC2"},{"bufferView":15,"componentType":5123,"count":192,"max":[143],"min":[0],"type":"SCALAR"},{"bufferView":16,"componentType":5126,"count":144,"max":[0.15625,0.28125,0.28125],"min":[-0.15625,-0.28125,-0.28125],"type":"VEC3"},{"bufferView":17,"componentType":5126,"count":144,"max":[1,1,1],"min":[-1,-1,-1],"type":"VEC3"},{"bufferView":18,"componentType":5126,"count":144,"max":[0.625,0.6171875],"min":[0,0.0781250149011612],"type":"VEC2"},{"bufferView":19,"componentType":5123,"count":192,"max":[143],"min":[0],"type":"SCALAR"},{"bufferView":20,"componentType":5126,"count":144,"max":[0.15625,0.28125,0.28125],"min":[-0.15625,-0.28125,-0.28125],"type":"VEC3"},{"bufferView":21,"componentType":5126,"count":144,"max":[1,1,1],"min":[-1,-1,-1],"type":"VEC3"},{"bufferView":22,"componentType":5126,"count":144,"max":[0.609375,0.5859375],"min":[0,0],"type":"VEC2"},{"bufferView":23,"componentType":5123,"count":192,"max":[143],"min":[0],"type":"SCALAR"},{"bufferView":24,"componentType":5126,"count":144,"max":[0.15625,0.28125,0.28125],"min":[-0.15625,-0.28125,-0.28125],"type":"VEC3"},{"bufferView":25,"componentType":5126,"count":144,"max":[1,1,1],"min":[-1,-1,-1],"type":"VEC3"},{"bufferView":26,"componentType":5126,"count":144,"max":[0.625,0.6171875],"min":[0,0.0781250149011612],"type":"VEC2"},{"bufferView":27,"componentType":5123,"count":192,"max":[143],"min":[0],"type":"SCALAR"}],"materials":[{"pbrMetallicRoughness":{"metallicFactor":0,"roughnessFactor":1,"baseColorTexture":{"index":0}},"alphaMode":"MASK","alphaCutoff":0.05,"doubleSided":true}],"textures":[{"sampler":0,"source":0,"name":"testTruck.png"}],"samplers":[{"magFilter":9728,"minFilter":9728,"wrapS":33071,"wrapT":33071}],"images":[{"mimeType":"image/png","uri":"data:image/png;base64,"}],"meshes":[{"primitives":[{"mode":4,"attributes":{"POSITION":0,"NORMAL":1,"TEXCOORD_0":2},"indices":3,"material":0}]},{"primitives":[{"mode":4,"attributes":{"POSITION":4,"NORMAL":5,"TEXCOORD_0":6},"indices":7,"material":0}]},{"primitives":[{"mode":4,"attributes":{"POSITION":8,"NORMAL":9,"TEXCOORD_0":10},"indices":11,"material":0}]},{"primitives":[{"mode":4,"attributes":{"POSITION":12,"NORMAL":13,"TEXCOORD_0":14},"indices":15,"material":0}]},{"primitives":[{"mode":4,"attributes":{"POSITION":16,"NORMAL":17,"TEXCOORD_0":18},"indices":19,"material":0}]},{"primitives":[{"mode":4,"attributes":{"POSITION":20,"NORMAL":21,"TEXCOORD_0":22},"indices":23,"material":0}]},{"primitives":[{"mode":4,"attributes":{"POSITION":24,"NORMAL":25,"TEXCOORD_0":26},"indices":27,"material":0}]}]}